<svg xmlns="http://www.w3.org/2000/svg" width="2em" height="2em" viewBox="0 0 128 128"><defs><linearGradient id="IconifyId195b802ecb4f0719e38" x1="95.898" x2="65.956" y1="92.37" y2="65.372" gradientTransform="matrix(.67916 0 0 .3681 0 11.54)" gradientUnits="userSpaceOnUse"><stop offset="0%" stop-color="#520BF5"/><stop offset="100%" stop-color="#9D1FE0"/><stop offset="100%" stop-color="#9D1FE0"/></linearGradient><linearGradient id="IconifyId195b802ecb4f0719e39" x1="95.443" x2="59.999" y1="191.538" y2="222.533" gradientTransform="matrix(.67553 0 0 .37008 0 11.54)" gradientUnits="userSpaceOnUse"><stop offset="0%" stop-color="#9E1FA7"/><stop offset="100%" stop-color="#E540AE"/></linearGradient><linearGradient id="IconifyId195b802ecb4f0719e40" x1="320.85" x2="208.425" y1="83.877" y2="83.877" gradientTransform="matrix(.39894 0 0 .62666 0 11.54)" gradientUnits="userSpaceOnUse"><stop offset="0%" stop-color="#4B6AF2"/><stop offset="100%" stop-color="#4CA7EB"/></linearGradient></defs><path fill="url(#IconifyId195b802ecb4f0719e38)" d="m87.64 11.54l-4.677 8.02a2.87 2.87 0 0 1-2.486 1.425a2.86 2.86 0 0 1-1.446-.392a2.875 2.875 0 0 1-1.034-3.931l2.987-5.122h-8.399c0 .49-.111.986-.374 1.44L59.288 35.3c-3.169 5.495-9.968 8.681-15.255 8.681h-4.137a2.875 2.875 0 0 1 0-5.749h4.137c3.747 0 8.041-2.663 10.174-5.622q2.132-2.96 12.194-21.07h-7.635C46.705 37.514 39.518 32.483 17.959 32.483c-1.427 2.162-2.862 4.331-4.265 6.468h15.045a2.875 2.875 0 0 1 0 5.749H9.946a357 357 0 0 0-3.62 5.72l47.228-.331l-2.114.001c2.86.058 7.487-1.616 9.727-5.137l11.135-17.6a2.874 2.874 0 1 1 4.858 3.074L66.02 48.034c-3.358 5.276-9.714 7.889-14.665 7.805l-48.443.355C.667 60.233 0 62.872.028 64.103h64.216l32.764-50.304c-2.068-1.192-5.03-2.156-8.82-2.259Z"/><path fill="url(#IconifyId195b802ecb4f0719e39)" d="M64.244 64.103H.028c-.206 3.045.743 6.209 2.53 8.988h42.994q10.035-1.102 17.807 8.346l10.782 17.43a2.874 2.874 0 0 1-.9 3.965a2.86 2.86 0 0 1-1.53.442a2.87 2.87 0 0 1-2.435-1.344q-9.97-16.163-12.144-18.285c-2.172-2.122-4.954-4.788-11.58-4.788H6.17l3.836 6.091h15.352a2.875 2.875 0 0 1 0 5.75H13.625l3.616 5.743c25.87 0 29.464 2.874 38.346 20.019h7.536q-9.654-17.24-12.2-20.34c-2.547-3.099-5.978-5.423-10.421-5.423h-3.988a2.875 2.875 0 0 1 0-5.748h3.988c6.095 0 12.935 3.915 15.404 8.681l13.641 22.32q.143.248.23.51h10.278l-3.284-5.63a2.875 2.875 0 0 1 1.034-3.931a2.87 2.87 0 0 1 1.446-.392c.99 0 1.952.51 2.486 1.427l4.974 8.526h2.528c2.003.006 3.47-.207 6.332-2.053z"/><path fill="url(#IconifyId195b802ecb4f0719e40)" d="m97.009 13.799l-3.993 6.076l4.947 7.42a2.874 2.874 0 0 1-.798 3.986a2.86 2.86 0 0 1-1.59.484a2.87 2.87 0 0 1-2.395-1.28l-3.594-5.39l-3.968 6.037l14.176 23.202a16.7 16.7 0 0 1-.04 17.56a3 3 0 0 1-.137.2l-1.736 2.344a2.87 2.87 0 0 1-2.312 1.163a2.87 2.87 0 0 1-1.71-.565a2.875 2.875 0 0 1-.597-4.022l1.66-2.239a10.97 10.97 0 0 0-.033-11.443L82.126 36.445L63.952 64.103l14.292-21.545l7.059 10.904a16.87 16.87 0 0 1-.037 18.383l-8.379 12.836l-12.935-20.578L80.58 90.558l7.661-10.215a2.876 2.876 0 0 1 4.6 3.45l-8.984 11.978l4.37 6.95l21.178-33.439c2.415-3.812 2.443-8.758.07-12.598l-10.24-16.582a2.875 2.875 0 0 1 4.891-3.021l10.242 16.582c3.52 5.699 3.478 13.037-.105 18.696l-22.37 35.321a3 3 0 0 1-.303.39l3.98 6.336q2.603-2.055 3.705-3.451q12.652-16.027 26.338-38.51c3.124-5.132 3.205-11.492.115-16.61c-11.76-19.465-24.824-40.105-28.72-42.035Z"/></svg>