<?xml version="1.0" encoding="UTF-8"?>
<svg width="240px" height="240px" viewBox="0 0 240 240" version="1.1" xmlns="http://www.w3.org/2000/svg" xmlns:xlink="http://www.w3.org/1999/xlink">
    <g stroke="none" stroke-width="1" fill="none" fill-rule="evenodd">
        <g>
            <rect x="0" y="0" width="240" height="240"></rect>
            <g transform="translate(51.000000, 49.000000)" stroke="#7c4dff" stroke-linecap="round" stroke-width="10">
                <path d="M100.104604,33.9818255 C97.3984609,38.7354074 94.0265983,39.4102866 89.9890159,36.0064632 C83.9326424,30.9007281 38.3411463,-24.9755454 18.22951,13.3441767 L6.97466029,39.559961" id="路径-6"></path>
                <path d="M122.756926,107.410838 C132.851266,94.611123 129.3907,85.2800784 112.375227,79.4177039 C114.08536,76.0161656 114.512893,70.3842035 113.657827,62.5218177 C112.375227,50.7282391 79.6045408,113.630001 60.0370099,67.7501201 C46.9919892,37.1635329 30.6679725,26.4756397 11.0649598,35.6864406 C3.68831994,41.881713 -3.26849658e-13,52.5696062 -3.26849658e-13,67.7501201 C-3.26849658e-13,82.930634 2.02086188,105.306924 6.06258563,134.878989" id="路径-7" stroke-linejoin="round"></path>
                <path d="M151.410733,140.69429 C136.195593,141.103162 118.475814,132.134055 98.251395,113.786969 C33.9622773,123.712004 1.21181226,107.821077 0,66.1141886" id="路径-8" stroke-linejoin="round"></path>
            </g>
        </g>
    </g>
</svg>